<svg width="24" height="24" viewBox="0 0 24 24" fill="none" xmlns="http://www.w3.org/2000/svg">
<path d="M17.3663 11.1911V11.1914V13.0862C17.3663 14.5121 17.9837 15.4092 18.5521 16.0782C18.662 16.2075 18.7619 16.3198 18.8535 16.4228C19.0111 16.6 19.1443 16.7497 19.2624 16.9119C19.4344 17.1481 19.5 17.3189 19.5 17.4808C19.5 17.6403 19.4998 17.78 19.4915 17.9078C19.483 18.0368 19.4676 18.1271 19.4477 18.1879C19.4402 18.2111 19.4335 18.2253 19.4291 18.2334C19.4205 18.235 19.4064 18.2366 19.3851 18.2366H4.61486C4.59359 18.2366 4.57952 18.235 4.57092 18.2334C4.56646 18.2253 4.55981 18.2111 4.55227 18.1879C4.53244 18.1271 4.51697 18.0368 4.50854 17.9078C4.50019 17.78 4.5 17.6403 4.5 17.4808C4.5 17.3189 4.56556 17.1481 4.73756 16.9119C4.85569 16.7497 4.9889 16.6 5.14647 16.4228C5.23809 16.3198 5.33795 16.2075 5.44788 16.0782C6.01634 15.4092 6.63371 14.5121 6.63371 13.0862V11.1914V11.1912C6.63302 10.0344 7.05568 8.90553 7.84231 7.98776C8.62968 7.06913 9.7366 6.41542 10.9882 6.14098L11.5056 6.02754L11.3626 5.51759C11.3606 5.51044 11.3588 5.50328 11.3571 5.4961V3.05262C11.3571 2.91995 11.414 2.78349 11.5306 2.67608C11.6486 2.5674 11.8168 2.5 12 2.5C12.1832 2.5 12.3514 2.5674 12.4694 2.67608C12.586 2.78349 12.6429 2.91995 12.6429 3.05262V5.4961C12.6412 5.50328 12.6394 5.51044 12.6374 5.51758L12.4944 6.02754L13.0118 6.14098C14.2634 6.41542 15.3703 7.06913 16.1577 7.98776C16.9443 8.90553 17.367 10.0344 17.3663 11.1911ZM19.4233 18.2425C19.4233 18.2424 19.4235 18.2422 19.4239 18.2418L19.4233 18.2425ZM19.4377 18.2314C19.4393 18.2306 19.4402 18.2303 19.4403 18.2303C19.4404 18.2304 19.4396 18.2308 19.4377 18.2314ZM4.55967 18.2303C4.55973 18.2303 4.56067 18.2306 4.5623 18.2314C4.56042 18.2308 4.55961 18.2304 4.55967 18.2303ZM4.57613 18.2418C4.57652 18.2422 4.57671 18.2425 4.5767 18.2425L4.57613 18.2418ZM6.13371 11.1914V13.0862C6.13371 14.5574 5.40154 15.3821 4.79499 16.0653C4.36609 16.5483 4 16.9607 4 17.4808C4 18.105 4 18.7366 4.61486 18.7366H19.3851C20 18.7366 20 18.105 20 17.4808C20 16.9607 19.6339 16.5483 19.205 16.0653C18.5985 15.3821 17.8663 14.5574 17.8663 13.0862V11.1914H6.13371ZM10.0838 20.9703C9.77459 20.782 9.50398 20.5514 9.27977 20.2892H14.7202C14.496 20.5514 14.2254 20.782 13.9162 20.9703C13.351 21.3145 12.6845 21.5 12 21.5C11.3155 21.5 10.649 21.3145 10.0838 20.9703Z" fill="#6B7280" stroke="#6B7280"/>
</svg>
