<svg width="20" height="21" viewBox="0 0 20 21" fill="none" xmlns="http://www.w3.org/2000/svg">
<path d="M7.78913 16.3334C7.56985 16.3334 7.35551 16.265 7.1732 16.137C6.99089 16.0089 6.84879 15.827 6.76488 15.6141C6.68098 15.4012 6.65902 15.1669 6.70178 14.9409C6.74455 14.7149 6.85012 14.5073 7.00515 14.3444L10.6567 10.5072L7.00515 6.67012C6.89925 6.56263 6.81477 6.43406 6.75665 6.29189C6.69854 6.14973 6.66795 5.99683 6.66667 5.84211C6.66539 5.68739 6.69345 5.53395 6.7492 5.39075C6.80496 5.24755 6.88729 5.11744 6.99141 5.00804C7.09553 4.89863 7.21933 4.81211 7.35561 4.75352C7.49189 4.69493 7.6379 4.66545 7.78514 4.66679C7.93238 4.66814 8.07788 4.70028 8.21317 4.76135C8.34846 4.82242 8.47082 4.91119 8.57311 5.02248L13.0086 9.68342C13.2165 9.90193 13.3333 10.1983 13.3333 10.5072C13.3333 10.8162 13.2165 11.1125 13.0086 11.3311L8.57311 15.992C8.3652 16.2105 8.0832 16.3333 7.78913 16.3334Z" fill="#6B7280"/>
</svg>
