<svg width="20" height="21" viewBox="0 0 20 21" fill="none" xmlns="http://www.w3.org/2000/svg">
<path d="M12.2108 16.3334C11.9167 16.3333 11.6347 16.2105 11.4268 15.992L6.99129 11.3311C6.78341 11.1125 6.66663 10.8162 6.66663 10.5072C6.66663 10.1983 6.78341 9.90193 6.99129 9.68342L11.4268 5.02248C11.5291 4.91119 11.6515 4.82242 11.7867 4.76135C11.922 4.70028 12.0675 4.66814 12.2148 4.66679C12.362 4.66545 12.508 4.69493 12.6443 4.75352C12.7806 4.81211 12.9044 4.89863 13.0085 5.00804C13.1126 5.11744 13.195 5.24755 13.2507 5.39075C13.3065 5.53395 13.3345 5.68739 13.3333 5.84211C13.332 5.99683 13.3014 6.14973 13.2433 6.29189C13.1852 6.43406 13.1007 6.56263 12.9948 6.67012L9.34322 10.5072L12.9948 14.3444C13.1498 14.5073 13.2554 14.7149 13.2981 14.9409C13.3409 15.1669 13.3189 15.4012 13.235 15.6141C13.1511 15.827 13.009 16.0089 12.8267 16.137C12.6444 16.265 12.4301 16.3334 12.2108 16.3334Z" fill="#6B7280"/>
</svg>
