<svg width="20" height="21" viewBox="0 0 20 21" fill="none" xmlns="http://www.w3.org/2000/svg">
<path d="M9.53392 13.146L9.53397 13.146C9.6572 13.2632 9.82951 13.3332 10.0142 13.3333L9.53392 13.146ZM9.53392 13.146L4.86725 8.71062L4.86731 8.71057M9.53392 13.146L4.86731 8.71057M4.86731 8.71057L4.86092 8.7047M4.86731 8.71057L4.86092 8.7047M4.86092 8.7047C4.79826 8.64718 4.74978 8.57978 4.71697 8.50719L4.26134 8.71312M4.86092 8.7047L4.26134 8.71312M4.26134 8.71312L4.71697 8.50719C4.68419 8.43467 4.66735 8.3577 4.66665 8.28053C4.66594 8.20336 4.68137 8.1262 4.71276 8.05328C4.74418 7.98029 4.79132 7.91224 4.85279 7.85382C4.91432 7.79535 4.98887 7.74781 5.07272 7.71521C5.15661 7.68259 5.24731 7.66589 5.3393 7.66665C5.43129 7.66741 5.5216 7.6856 5.60477 7.71955C5.68791 7.7535 5.76144 7.80217 5.82176 7.86153L5.82171 7.86158M4.26134 8.71312L5.82171 7.86158M5.82171 7.86158L5.828 7.86756L9.66984 11.519L10.0143 11.8464L10.3588 11.519L14.197 7.87098M5.82171 7.86158L14.197 7.87098M14.197 7.87098C14.321 7.75843 14.4913 7.69241 14.6726 7.6939C14.8553 7.69541 15.0252 7.76522 15.1471 7.88107C15.2682 7.99613 15.3319 8.14632 15.3333 8.29766C15.3346 8.44783 15.2746 8.59765 15.1577 8.71404L10.4947 13.146L10.4946 13.146C10.3714 13.2632 10.1991 13.3332 10.0144 13.3333L14.197 7.87098Z" fill="black" stroke="white"/>
</svg>
