<svg width="32" height="33" viewBox="0 0 32 33" fill="none" xmlns="http://www.w3.org/2000/svg">
<g clip-path="url(#clip0_3102_25)">
<path d="M15.6021 31.7128C24.0545 31.7128 30.9065 24.8608 30.9065 16.4085C30.9065 7.95609 24.0545 1.1041 15.6021 1.1041C7.14973 1.1041 0.297729 7.95609 0.297729 16.4085C0.297729 24.8608 7.14973 31.7128 15.6021 31.7128Z" fill="black"/>
<path d="M1.24872 21.7218C1.54496 22.5172 1.90883 23.3004 2.34846 24.0593C6.4647 31.188 15.4493 33.7513 22.6781 29.9759C22.7146 29.957 22.7511 29.9381 22.7876 29.9178C22.9446 29.8339 23.1001 29.7487 23.2543 29.6594C24.8613 28.7315 26.237 27.556 27.3597 26.2087L27.3814 26.1789C28.5731 22.9731 28.6205 19.5399 27.6668 16.4057C26.5765 19.9877 24.1782 23.18 20.6802 25.2009C14.1209 28.9885 5.92227 27.3666 1.25007 21.7205L1.24872 21.7218Z" fill="url(#paint0_linear_3102_25)"/>
<path d="M18.1818 1.31967C17.3449 1.17853 16.4801 1.10371 15.6031 1.10501C7.37139 1.10543 0.659172 7.60463 0.314341 15.7526C0.312479 15.7937 0.31062 15.8348 0.309931 15.8766C0.304105 16.0544 0.300126 16.2318 0.300338 16.4099C0.300465 18.2656 0.630627 20.0447 1.23604 21.6907L1.25099 21.7243C3.4315 24.3593 6.38101 26.1169 9.57212 26.8581C7.01522 24.1229 5.44972 20.4498 5.44858 16.4099C5.44808 8.83567 10.952 2.54635 18.1778 1.32318L18.1818 1.31967Z" fill="url(#paint1_linear_3102_25)"/>
<path d="M27.3804 26.1822C27.9211 25.5279 28.4174 24.8212 28.8548 24.061C32.9703 16.9319 30.6979 7.86937 23.814 3.49673C23.7793 3.47457 23.7446 3.45241 23.7088 3.43093C23.5577 3.33697 23.4061 3.24486 23.2517 3.15595C21.6446 2.22822 19.9387 1.62459 18.2106 1.32591L18.1797 1.3207C14.8075 1.89158 11.8049 3.56849 9.56744 5.96147C13.2146 5.11471 17.1784 5.59554 20.6776 7.61449C27.2374 11.4012 29.9321 19.3124 27.3785 26.1817L27.3804 26.1822Z" fill="url(#paint2_linear_3102_25)"/>
<path d="M17.8463 13.7926C17.7972 13.2966 17.5861 12.9113 17.213 12.6367C16.84 12.362 16.3338 12.2247 15.6943 12.2247C15.2598 12.2247 14.893 12.2862 14.5937 12.4092C14.2945 12.528 14.065 12.694 13.9051 12.9072C13.7493 13.1203 13.6714 13.3622 13.6714 13.6327C13.6632 13.8582 13.7104 14.0549 13.8129 14.223C13.9194 14.3911 14.065 14.5366 14.2494 14.6595C14.4339 14.7784 14.647 14.8829 14.8889 14.9731C15.1307 15.0592 15.389 15.133 15.6636 15.1945L16.7949 15.465C17.3442 15.588 17.8484 15.7519 18.3075 15.9569C18.7666 16.1619 19.1642 16.4139 19.5003 16.7132C19.8364 17.0124 20.0967 17.3649 20.2812 17.7707C20.4697 18.1765 20.5661 18.6418 20.5702 19.1665C20.5661 19.9371 20.3693 20.6052 19.9799 21.1709C19.5946 21.7325 19.0371 22.169 18.3075 22.4806C17.582 22.788 16.7068 22.9417 15.682 22.9417C14.6655 22.9417 13.7801 22.7859 13.0258 22.4744C12.2757 22.1629 11.6895 21.7017 11.2673 21.091C10.8492 20.4761 10.6299 19.7157 10.6094 18.8098H13.1857C13.2144 19.2321 13.3353 19.5846 13.5485 19.8674C13.7657 20.1461 14.0547 20.3572 14.4154 20.5007C14.7802 20.6401 15.1922 20.7098 15.6513 20.7098C16.1022 20.7098 16.4936 20.6442 16.8257 20.513C17.1618 20.3818 17.4221 20.1994 17.6065 19.9658C17.791 19.7321 17.8832 19.4637 17.8832 19.1603C17.8832 18.8775 17.7992 18.6397 17.6311 18.4471C17.4672 18.2544 17.2253 18.0905 16.9056 17.9552C16.59 17.8199 16.2026 17.697 15.7435 17.5863L14.3724 17.242C13.3107 16.9837 12.4725 16.58 11.8576 16.0307C11.2427 15.4814 10.9374 14.7415 10.9415 13.811C10.9374 13.0486 11.1403 12.3825 11.5502 11.8127C11.9642 11.243 12.5319 10.7982 13.2533 10.4785C13.9748 10.1588 14.7946 9.9989 15.7128 9.9989C16.6474 9.9989 17.4631 10.1588 18.1599 10.4785C18.8609 10.7982 19.406 11.243 19.7955 11.8127C20.1849 12.3825 20.3857 13.0425 20.398 13.7926H17.8463Z" fill="white"/>
</g>
<defs>
<linearGradient id="paint0_linear_3102_25" x1="6.16465" y1="29.5153" x2="25.0514" y2="27.4168" gradientUnits="userSpaceOnUse">
<stop stop-color="#76A9FA"/>
<stop offset="0.499" stop-color="#1A56DB"/>
<stop offset="1" stop-color="#233876"/>
</linearGradient>
<linearGradient id="paint1_linear_3102_25" x1="8.97148" y1="1.67928" x2="1.34472" y2="19.0874" gradientUnits="userSpaceOnUse">
<stop stop-color="#76A9FA"/>
<stop offset="0.499" stop-color="#1A56DB"/>
<stop offset="1" stop-color="#233876"/>
</linearGradient>
<linearGradient id="paint2_linear_3102_25" x1="31.6718" y1="18.0282" x2="20.4114" y2="2.72145" gradientUnits="userSpaceOnUse">
<stop stop-color="#76A9FA"/>
<stop offset="0.499" stop-color="#1A56DB"/>
<stop offset="1" stop-color="#233876"/>
</linearGradient>
<clipPath id="clip0_3102_25">
<rect width="32" height="32" fill="white" transform="translate(0 0.5)"/>
</clipPath>
</defs>
</svg>
